<?plantuml 1.2026.2?><svg xmlns="http://www.w3.org/2000/svg" xmlns:xlink="http://www.w3.org/1999/xlink" contentStyleType="text/css" data-diagram-type="STATE" height="1167px" preserveAspectRatio="none" style="width:1103px;height:1167px;background:#FFFFFF;" version="1.1" viewBox="0 0 1103 1167" width="1103px" zoomAndPan="magnify"><defs/><g><!--cluster Payload_Intercepted--><g class="cluster" data-qualified-name="Payload_Intercepted" data-source-line="6" id="ent0002"><path d="M228.5,102 L807.5,102 A12.5,12.5 0 0 1 820,114.5 L820,124.0146 L216,124.0146 L216,114.5 A12.5,12.5 0 0 1 228.5,102" fill="#FFFFFF"/><path d="M216,124.0146 L820,124.0146 L820,616.71 A12.5,12.5 0 0 1 807.5,629.21 L228.5,629.21 A12.5,12.5 0 0 1 216,616.71 L216,124.0146" fill="#FFFFFF"/><rect fill="none" height="527.21" rx="12.5" ry="12.5" style="stroke:#000000;stroke-width:1;" width="604" x="216" y="102"/><line style="stroke:#000000;stroke-width:1;" x1="216" x2="820" y1="124.0146" y2="124.0146"/><text fill="#000000" font-family="Verdana" font-size="14" lengthAdjust="spacing" textLength="145.0244" x="445.4878" y="120.0752">Payload_Intercepted</text></g><!--cluster Deterministic_Fallback--><g class="cluster" data-qualified-name="Deterministic_Fallback" data-source-line="22" id="ent0006"><path d="M24.5,694.21 L456.5,694.21 A12.5,12.5 0 0 1 469,706.71 L469,716.2246 L12,716.2246 L12,706.71 A12.5,12.5 0 0 1 24.5,694.21" fill="#FFFFFF"/><path d="M12,716.2246 L469,716.2246 L469,1056.49 A12.5,12.5 0 0 1 456.5,1068.99 L24.5,1068.99 A12.5,12.5 0 0 1 12,1056.49 L12,716.2246" fill="#FFFFFF"/><rect fill="none" height="374.78" rx="12.5" ry="12.5" style="stroke:#000000;stroke-width:1;" width="457" x="12" y="694.21"/><line style="stroke:#000000;stroke-width:1;" x1="12" x2="469" y1="716.2246" y2="716.2246"/><text fill="#000000" font-family="Verdana" font-size="14" lengthAdjust="spacing" textLength="158.8125" x="161.0938" y="712.2852">Deterministic_Fallback</text></g><g class="entity" data-qualified-name="Payload_Intercepted.Vector_Retrieval" id="ent0003"><rect fill="#FFFFFF" height="51.5986" rx="12.5" ry="12.5" style="stroke:#000000;stroke-width:1;" width="233.9785" x="397.01" y="227"/><line style="stroke:#000000;stroke-width:1;" x1="397.01" x2="630.9885" y1="254.0146" y2="254.0146"/><text fill="#000000" font-family="Verdana" font-size="14" lengthAdjust="spacing" textLength="116.375" x="455.8118" y="246.0752">Vector_Retrieval</text><text fill="#000000" font-family="Verdana" font-size="12" lengthAdjust="spacing" textLength="213.9785" x="402.01" y="271.0791">Query pgvector for regulatory rules</text></g><path d="M252.98,355.59 L775.0232,355.59 A12.5,12.5 0 0 1 787.5232,368.09 L787.5232,382.6046 L240.48,382.6046 L240.48,368.09 A12.5,12.5 0 0 1 252.98,355.59" fill="#FFFFFF"/><path d="M240.48,382.6046 L787.5232,382.6046 L787.5232,592.7046 A12.5,12.5 0 0 1 775.0232,605.2046 L252.98,605.2046 A12.5,12.5 0 0 1 240.48,592.7046 L240.48,382.6046" fill="#FFFFFF"/><rect fill="none" height="249.6146" rx="12.5" ry="12.5" style="stroke:#000000;stroke-width:1;" width="547.0432" x="240.48" y="355.59"/><line style="stroke:#000000;stroke-width:1;" x1="240.48" x2="787.5232" y1="382.6046" y2="382.6046"/><text fill="#000000" font-family="Verdana" font-size="14" lengthAdjust="spacing" textLength="116.9219" x="455.5407" y="374.6652">Model_Inference</text><g class="entity" data-qualified-name="Payload_Intercepted.Model_Inference.LLM_Evaluation" id="ent0005"><rect fill="#FFFFFF" height="51.5986" rx="12.5" ry="12.5" style="stroke:#000000;stroke-width:1;" width="282.6934" x="333.97" y="450.6046"/><line style="stroke:#000000;stroke-width:1;" x1="333.97" x2="616.6634" y1="477.6193" y2="477.6193"/><text fill="#000000" font-family="Verdana" font-size="14" lengthAdjust="spacing" textLength="109.6553" x="420.489" y="469.6798">LLM_Evaluation</text><text fill="#000000" font-family="Verdana" font-size="12" lengthAdjust="spacing" textLength="262.6934" x="338.97" y="494.6838">Evaluate Schema vs Rules via Llama-3-70B</text></g><g class="start_entity" data-qualified-name="Payload_Intercepted.Model_Inference..start.Model_Inference" data-source-line="12" id="ent0007"><ellipse cx="475.31" cy="403.6046" fill="#FFFFFF" rx="10" ry="10" style="stroke:#000000;stroke-width:1;"/></g><rect fill="#FFFFFF" height="40" rx="12.5" ry="12.5" style="stroke:#000000;stroke-width:1;" width="141.667" x="252.48" y="555.2046"/><text fill="#000000" font-family="Verdana" font-size="14" lengthAdjust="spacing" textLength="131.667" x="257.48" y="580.7725">Inference_Success</text><rect fill="#FFFFFF" height="40" rx="12.5" ry="12.5" style="stroke:#000000;stroke-width:1;" width="111.4727" x="419.58" y="555.2046"/><text fill="#000000" font-family="Verdana" font-size="14" lengthAdjust="spacing" textLength="101.4727" x="424.58" y="580.7725">Timeout_Error</text><rect fill="#FFFFFF" height="40" rx="12.5" ry="12.5" style="stroke:#000000;stroke-width:1;" width="144.7637" x="573.93" y="555.2046"/><text fill="#000000" font-family="Verdana" font-size="14" lengthAdjust="spacing" textLength="134.7637" x="578.93" y="580.7725">Hallucination_Error</text><!--link *start*Model_Inference to LLM_Evaluation--><g class="link" data-entity-1="ent0007" data-entity-2="ent0005" data-link-type="dependency" data-source-line="12" id="lnk8"><path d="M475.31,413.8646 C475.31,423.0846 475.31,431.6546 475.31,444.2946" fill="none" id="*start*Model_Inference-to-LLM_Evaluation" style="stroke:#000000;stroke-width:1;"/><polygon fill="#000000" points="475.31,450.2946,479.31,441.2946,475.31,445.2946,471.31,441.2946,475.31,450.2946" style="stroke:#000000;stroke-width:1;"/></g><!--link LLM_Evaluation to Inference_Success--><g class="link" data-entity-1="ent0005" data-entity-2="ent0009" data-link-type="dependency" data-source-line="14" id="lnk10"><path d="M366.53,502.5846 C357.7,507.4546 349.44,513.2646 342.31,520.2046 C332.91,529.3546 329.3917,537.5524 326.9817,549.0424" fill="none" id="LLM_Evaluation-to-Inference_Success" style="stroke:#000000;stroke-width:1;"/><polygon fill="#000000" points="325.75,554.9146,331.5123,546.9274,326.7764,550.0211,323.6827,545.2852,325.75,554.9146" style="stroke:#000000;stroke-width:1;"/><text fill="#000000" font-family="Verdana" font-size="13" lengthAdjust="spacing" textLength="127.8291" x="343.31" y="534.2745">Valid output parsed</text></g><!--link LLM_Evaluation to Timeout_Error--><g class="link" data-entity-1="ent0005" data-entity-2="ent0011" data-link-type="dependency" data-source-line="15" id="lnk12"><path d="M475.31,502.5846 C475.31,518.9446 475.31,533.9346 475.31,548.9546" fill="none" id="LLM_Evaluation-to-Timeout_Error" style="stroke:#000000;stroke-width:1;"/><polygon fill="#000000" points="475.31,554.9546,479.31,545.9546,475.31,549.9546,471.31,545.9546,475.31,554.9546" style="stroke:#000000;stroke-width:1;"/><text fill="#000000" font-family="Verdana" font-size="13" lengthAdjust="spacing" textLength="146.0977" x="476.31" y="534.2745">TTFT exceeds 10s SLA</text></g><!--link LLM_Evaluation to Hallucination_Error--><g class="link" data-entity-1="ent0005" data-entity-2="ent0013" data-link-type="dependency" data-source-line="16" id="lnk14"><path d="M598.52,502.5946 C607.84,507.4746 616.6,513.2846 624.31,520.2046 C634.25,529.1346 638.2616,537.4126 641.3016,548.9526" fill="none" id="LLM_Evaluation-to-Hallucination_Error" style="stroke:#000000;stroke-width:1;"/><polygon fill="#000000" points="642.83,554.7546,644.4054,545.0326,641.5563,549.9196,636.6693,547.0705,642.83,554.7546" style="stroke:#000000;stroke-width:1;"/><text fill="#000000" font-family="Verdana" font-size="13" lengthAdjust="spacing" textLength="140.2832" x="637.24" y="534.2745">Output format invalid</text></g><g class="start_entity" data-qualified-name="Payload_Intercepted..start.Payload_Intercepted" data-source-line="7" id="ent0004"><ellipse cx="514" cy="156" fill="#FFFFFF" rx="10" ry="10" style="stroke:#000000;stroke-width:1;"/></g><g class="entity" data-qualified-name="Deterministic_Fallback.Keyword_Matching" id="ent0007"><rect fill="#FFFFFF" height="66.1826" rx="12.5" ry="12.5" style="stroke:#000000;stroke-width:1;" width="220.6426" x="41.68" y="861.81"/><line style="stroke:#000000;stroke-width:1;" x1="41.68" x2="262.3226" y1="888.8246" y2="888.8246"/><text fill="#000000" font-family="Verdana" font-size="14" lengthAdjust="spacing" textLength="133.1777" x="85.4124" y="880.8852">Keyword_Matching</text><text fill="#000000" font-family="Verdana" font-size="12" lengthAdjust="spacing" textLength="200.6426" x="46.68" y="905.8891">Fallback to strict regex/AST rules</text><text fill="#000000" font-family="Verdana" font-size="12" lengthAdjust="spacing" textLength="157.4941" x="46.68" y="920.4731">(No contextual reasoning)</text></g><g class="start_entity" data-qualified-name="Deterministic_Fallback..start.Deterministic_Fallback" data-source-line="23" id="ent0016"><ellipse cx="152" cy="748.21" fill="#FFFFFF" rx="10" ry="10" style="stroke:#000000;stroke-width:1;"/></g><rect fill="#FFFFFF" height="40" rx="12.5" ry="12.5" style="stroke:#000000;stroke-width:1;" width="84.833" x="352.58" y="1004.99"/><text fill="#000000" font-family="Verdana" font-size="14" lengthAdjust="spacing" textLength="74.833" x="357.58" y="1030.5579">Hard_Stop</text><rect fill="#FFFFFF" height="40" rx="12.5" ry="12.5" style="stroke:#000000;stroke-width:1;" width="142.583" x="35.71" y="1004.99"/><text fill="#000000" font-family="Verdana" font-size="14" lengthAdjust="spacing" textLength="132.583" x="40.71" y="1030.5579">Approved_Fallback</text><g class="start_entity" data-qualified-name=".start." data-source-line="4" id="ent0002"><ellipse cx="812" cy="21" fill="#FFFFFF" rx="10" ry="10" style="stroke:#000000;stroke-width:1;"/></g><rect fill="#FFFFFF" height="40" rx="12.5" ry="12.5" style="stroke:#000000;stroke-width:1;" width="126.9355" x="660.53" y="1004.99"/><text fill="#000000" font-family="Verdana" font-size="14" lengthAdjust="spacing" textLength="116.9355" x="665.53" y="1030.5579">Approved_Model</text><g class="end_entity" data-qualified-name=".end." data-source-line="33" id="ent0025"><ellipse cx="407" cy="1150.99" fill="none" rx="11" ry="11" style="stroke:#000000;stroke-width:1;"/><ellipse cx="407" cy="1150.99" fill="#FFFFFF" rx="6" ry="6" style="stroke:#000000;stroke-width:1;"/></g><g class="entity" data-qualified-name="GMN2" data-source-line="38" id="ent0003"><path d="M839.72,711.61 L839.72,784.8073 L1096.2752,784.8073 L1096.2752,721.61 L1086.2752,711.61 L839.72,711.61" fill="#FFFFFF" style="stroke:#000000;stroke-width:1;"/><path d="M1086.2752,711.61 L1086.2752,721.61 L1096.2752,721.61 L1086.2752,711.61" fill="#FFFFFF" style="stroke:#000000;stroke-width:1;"/><text fill="#000000" font-family="Verdana" font-size="13" font-weight="bold" lengthAdjust="spacing" textLength="228.6108" x="845.72" y="729.6798">Graceful Cognitive Degradation</text><text fill="#000000" font-family="Verdana" font-size="13" lengthAdjust="spacing" textLength="218.6514" x="845.72" y="745.4791">If the LLM fails, we bypass the AI</text><text fill="#000000" font-family="Verdana" font-size="13" lengthAdjust="spacing" textLength="235.5552" x="845.72" y="761.2785">and rely on deterministic thresholds</text><text fill="#000000" font-family="Verdana" font-size="13" lengthAdjust="spacing" textLength="195.8506" x="845.72" y="777.0778">to guarantee system stability.</text></g><!--link *start* to Payload_Intercepted--><g class="link" data-entity-1="ent0002" data-entity-2="ent0002" data-link-type="dependency" data-source-line="4" id="lnk3"><path d="M812,31.14 C812,38.535 812,49.7913 812,62.5605 C812,68.9451 812,75.7079 812,82.5555 C812,85.9793 812,89.4242 812,92.8537 C812,94.5684 812,96.2792 812,97.9816 C812,98.8328 812,99.6819 812,100.5282 C812,100.9514 812,95.374 812,95.7957" fill="none" id="*start*-to-Payload_Intercepted" style="stroke:#000000;stroke-width:1;"/><polygon fill="#000000" points="812,101.7957,816,92.7957,812,96.7957,808,92.7957,812,101.7957" style="stroke:#000000;stroke-width:1;"/><text fill="#000000" font-family="Verdana" font-size="13" lengthAdjust="spacing" textLength="204.458" x="813" y="75.0698">LLD Schema Arrives at Agent 3</text></g><!--link *start*Payload_Intercepted to Vector_Retrieval--><g class="link" data-entity-1="ent0004" data-entity-2="ent0003" data-link-type="dependency" data-source-line="7" id="lnk5"><path d="M514,166.43 C514,180.39 514,201.02 514,220.84" fill="none" id="*start*Payload_Intercepted-to-Vector_Retrieval" style="stroke:#000000;stroke-width:1;"/><polygon fill="#000000" points="514,226.84,518,217.84,514,221.84,510,217.84,514,226.84" style="stroke:#000000;stroke-width:1;"/></g><!--link Vector_Retrieval to Model_Inference--><g class="link" data-entity-1="ent0003" data-entity-2="ent0004" data-link-type="dependency" data-source-line="9" id="lnk6"><path d="M514,278.8 C514,298.02 514,320.13 514,349.26" fill="none" id="Vector_Retrieval-to-Model_Inference" style="stroke:#000000;stroke-width:1;"/><polygon fill="#000000" points="514,355.26,518,346.26,514,350.26,510,346.26,514,355.26" style="stroke:#000000;stroke-width:1;"/><text fill="#000000" font-family="Verdana" font-size="13" lengthAdjust="spacing" textLength="102.0513" x="515" y="322.6598">Rules Extracted</text></g><!--link Model_Inference to Deterministic_Fallback--><g class="link" data-entity-1="ent0004" data-entity-2="ent0006" data-link-type="dependency" data-source-line="20" id="lnk15"><path d="M240.27,569.9 C206.47,591.94 176.36,619.3 155,653.21 C150.97,659.6 149.73,664.79 155,670.21 C166.55,682.08 440.78,667.03 453,678.21 C455.7575,680.7338 457.9645,683.6581 459.714,686.8491 C460.5887,688.4446 461.349,690.1067 462.0065,691.8187 C462.1709,692.2467 462.3289,692.6778 462.4806,693.1118 C462.5564,693.3288 462.6307,693.5465 462.7035,693.7649 C462.7399,693.8741 460.9206,688.2775 460.9562,688.387" fill="none" id="Model_Inference-to-Deterministic_Fallback" style="stroke:#000000;stroke-width:1;"/><polygon fill="#000000" points="462.8115,694.093,463.8325,684.2972,461.2654,689.338,456.2246,686.7709,462.8115,694.093" style="stroke:#000000;stroke-width:1;"/><text fill="#000000" font-family="Verdana" font-size="13" lengthAdjust="spacing" textLength="331.957" x="156" y="667.2798">[Timeout OR Hallucination] (Circuit Breaker OPEN)</text></g><!--link *start*Deterministic_Fallback to Keyword_Matching--><g class="link" data-entity-1="ent0016" data-entity-2="ent0007" data-link-type="dependency" data-source-line="23" id="lnk17"><path d="M152,758.7 C152,779.2 152,822.4 152,855.45" fill="none" id="*start*Deterministic_Fallback-to-Keyword_Matching" style="stroke:#000000;stroke-width:1;"/><polygon fill="#000000" points="152,861.45,156,852.45,152,856.45,148,852.45,152,861.45" style="stroke:#000000;stroke-width:1;"/></g><!--link Keyword_Matching to Hard_Stop--><g class="link" data-entity-1="ent0007" data-entity-2="ent0018" data-link-type="dependency" data-source-line="26" id="lnk19"><path d="M156.85,928.15 C160.93,944.4 168.39,963.12 182,974.99 C207.09,996.87 291.9416,1010.9948 346.5616,1018.2048" fill="none" id="Keyword_Matching-to-Hard_Stop" style="stroke:#000000;stroke-width:1;"/><polygon fill="#000000" points="352.51,1018.99,344.1109,1013.8466,347.553,1018.3357,343.0639,1021.7778,352.51,1018.99" style="stroke:#000000;stroke-width:1;"/><text fill="#000000" font-family="Verdana" font-size="13" lengthAdjust="spacing" textLength="277.6401" x="183" y="972.0598">Violation (e.g., CDE ingress without DPoP)</text></g><!--link Keyword_Matching to Approved_Fallback--><g class="link" data-entity-1="ent0007" data-entity-2="ent0020" data-link-type="dependency" data-source-line="27" id="lnk21"><path d="M92.88,928.3 C82.84,936.6 73.8,946.49 68,957.99 C59.85,974.15 67.1909,987.4647 79.7709,1000.4247" fill="none" id="Keyword_Matching-to-Approved_Fallback" style="stroke:#000000;stroke-width:1;"/><polygon fill="#000000" points="83.95,1004.73,80.5516,995.486,80.4675,1001.1423,74.8112,1001.0581,83.95,1004.73" style="stroke:#000000;stroke-width:1;"/><text fill="#000000" font-family="Verdana" font-size="13" lengthAdjust="spacing" textLength="45.0366" x="69" y="972.0598">Passed</text></g><!--link Model_Inference to Approved_Model--><g class="link" data-entity-1="ent0004" data-entity-2="ent0022" data-link-type="dependency" data-source-line="30" id="lnk23"><path d="M628.63,605.56 C675.3,664.39 723.88,738.44 748,814.81 C769.31,882.26 746.6952,961.595 733.4052,999.075" fill="none" id="Model_Inference-to-Approved_Model" style="stroke:#000000;stroke-width:1;"/><polygon fill="#000000" points="731.4,1004.73,738.1778,997.5843,733.071,1000.0175,730.6378,994.9107,731.4,1004.73" style="stroke:#000000;stroke-width:1;"/><text fill="#000000" font-family="Verdana" font-size="13" lengthAdjust="spacing" textLength="235.9297" x="753.32" y="828.8798">[Inference_Success] (No Violations)</text></g><!--link Model_Inference to Hard_Stop--><g class="link" data-entity-1="ent0004" data-entity-2="ent0018" data-link-type="dependency" data-source-line="31" id="lnk24"><path d="M502.95,605.57 C489.98,749.17 469.65,967.04 465,974.99 C457.88,987.15 451.4274,993.7498 439.8074,1001.3698" fill="none" id="Model_Inference-to-Hard_Stop" style="stroke:#000000;stroke-width:1;"/><polygon fill="#000000" points="434.79,1004.66,444.5096,1003.0696,438.9712,1001.9181,440.1226,996.3797,434.79,1004.66" style="stroke:#000000;stroke-width:1;"/><text fill="#000000" font-family="Verdana" font-size="13" lengthAdjust="spacing" textLength="258.229" x="484.17" y="828.8798">[Inference_Success] (Violations Found)</text></g><!--link Approved_Model to *end*--><g class="link" data-entity-1="ent0022" data-entity-2="ent0025" data-link-type="dependency" data-source-line="33" id="lnk26"><path d="M707.11,1045.32 C688.88,1064.87 658,1094.35 625,1109.99 C551.63,1144.76 457.1092,1149.2902 424.0392,1149.8402" fill="none" id="Approved_Model-to-*end*" style="stroke:#000000;stroke-width:1;"/><polygon fill="#000000" points="418.04,1149.94,427.1053,1153.7898,423.0393,1149.8569,426.9722,1145.7909,418.04,1149.94" style="stroke:#000000;stroke-width:1;"/><text fill="#000000" font-family="Verdana" font-size="13" lengthAdjust="spacing" textLength="222.6885" x="653.4" y="1107.0598">Publish Validation OK to Temporal</text></g><!--link Approved_Fallback to *end*--><g class="link" data-entity-1="ent0020" data-entity-2="ent0025" data-link-type="dependency" data-source-line="34" id="lnk27"><path d="M107.59,1045.16 C109.28,1064.58 115.06,1093.95 134,1109.99 C174.49,1144.27 343.2907,1149.0907 389.6707,1149.7807" fill="none" id="Approved_Fallback-to-*end*" style="stroke:#000000;stroke-width:1;"/><polygon fill="#000000" points="395.67,1149.87,386.7305,1145.7366,390.6706,1149.7956,386.6115,1153.7357,395.67,1149.87" style="stroke:#000000;stroke-width:1;"/><text fill="#000000" font-family="Verdana" font-size="13" lengthAdjust="spacing" textLength="258.0195" x="135" y="1107.0598">Publish Validation OK (Degraded Mode)</text></g><!--link Hard_Stop to *end*--><g class="link" data-entity-1="ent0018" data-entity-2="ent0025" data-link-type="dependency" data-source-line="35" id="lnk28"><path d="M396.88,1045.36 C399.46,1072.07 403.441,1113.238 405.441,1133.868" fill="none" id="Hard_Stop-to-*end*" style="stroke:#000000;stroke-width:1;"/><polygon fill="#000000" points="406.02,1139.84,409.1329,1130.496,405.5375,1134.8633,401.1702,1131.268,406.02,1139.84" style="stroke:#000000;stroke-width:1;"/><text fill="#000000" font-family="Verdana" font-size="13" lengthAdjust="spacing" textLength="212.0244" x="404.12" y="1107.0598">Publish TRA Alert &amp; Halt Pipeline</text></g><!--link Deterministic_Fallback to GMN2--><g class="link" data-entity-1="ent0006" data-entity-2="ent0003" data-link-type="association" data-source-line="38" id="lnk4"><path d="M470.3566,748.21 C471.3406,748.21 472.3247,748.21 473.3088,748.21 C477.245,748.21 481.1813,748.21 485.1176,748.21 C492.9902,748.21 500.8628,748.21 508.7354,748.21 C524.4807,748.21 540.2262,748.21 555.9717,748.21 C587.4628,748.21 618.9544,748.21 650.4463,748.21 C713.43,748.21 776.415,748.21 839.4,748.21" fill="none" id="Deterministic_Fallback-GMN2" style="stroke:#000000;stroke-width:1;stroke-dasharray:7,7;"/></g><?plantuml-src XLHDJzj04BtxLqmlLL8HeE9G2I4aGqAB22HDB2u8HPlrn5wnthNsmyH2_FVEsX12S5J9FdXdvitRDy_ppULO89II2HNb8aN0edGrf6Yv4QKJMaNHmuz760pEOSfggLcwk5OE3SVIOGgdC1uFOSu9Xa5iZAZG0dCGPwWSd4IHTSnXP-bB1F0EVO_SQREOeJC2AoOfj7j4hVvwD3MKMTM4O4MlmSnBHbyr62_HTXM61hSwHKdjLsXGSIImMKY7qTePneaE5TBJijrD3am_k8x7juiHuNhMo1D2duy8_Eq3tvMfx5k_IZ0OIrQmmSdWr_55LtNeiUczc7lEqLh2l6TIfA2zAxs3aXdRaEuiJqI1bBWO6KCQdKAIN2M0QuwOMlXvR64-ZlVL_c5IUYvKSx91cBHjIVA2fYjK5SWGn6lq6aMxUWMO8TAa2w64TO8lhWXqoVWJ8JsyaOF9x7ElH-XT2iEzS71Xa3sXWSbqTDT_zz0Un6qRtM3zh4swk6MEvq9b5Dez8WQRKgTfu4Pm5so4wwDudcnSr57NkzF0DJbuxJpPYZXQhIZKxqflfQIJkTDbc9xGiXMvXuVPuG5S3aUaOsR2S9-5ouCamwcUxaMBozBe2jDjCQVC1XlicS6ceWa6xR_uwh6vrOQSxNS2RL-a4-C30AwqLoaDRQTvW0bZ8iv-AONDMp-taankmYmIsZtQqC__zQR_g-uDCJCifQqIklMZ3y9VAvDP3B54u-1xCA23gIXH2eLHf3Jvp8WiTw1NUmn7upbRdl-chO4hB-5IPqeuMdlGKcWedHqjpodlUWMqNyDF1Yicf3s0PuHbNTBGca1yJKbCfMGbMGFT9DtkI2baZbpBDFYHzCayCupiXs1hwx08sseff73rOOI44jX7_m00?></g></svg>